<?xml version="1.0" encoding="utf-8"?>
<!-- Generator: Adobe Illustrator 17.0.2, SVG Export Plug-In . SVG Version: 6.00 Build 0)  -->
<!DOCTYPE svg PUBLIC "-//W3C//DTD SVG 1.1//EN" "http://www.w3.org/Graphics/SVG/1.1/DTD/svg11.dtd">
<svg version="1.1" id="Layer_1" xmlns="http://www.w3.org/2000/svg" xmlns:xlink="http://www.w3.org/1999/xlink" x="0px" y="0px"
	 width="367.027px" height="254.95px" viewBox="0 0 367.027 254.95" enable-background="new 0 0 367.027 254.95"
	 xml:space="preserve">
<g>
	
		<image overflow="visible" width="750" height="1481" xlink:href="../../../Artwork/Assignment 2/Design/Links/carton.jpg"  transform="matrix(0.1719 4.108255e-04 -4.108255e-04 0.1719 238.0721 0)">
	</image>
	
		<rect x="254.471" y="30.469" transform="matrix(1 0.0024 -0.0024 1 0.3254 -0.7246)" fill="#FFFFFF" stroke="#231F20" stroke-width="0.25" width="97.891" height="210.702"/>
	<g>
		
			<rect x="254.76" y="30.55" transform="matrix(1 0.0024 -0.0024 1 0.3263 -0.6727)" fill="#735744" width="53.856" height="211.379"/>
		
			<text transform="matrix(-0.0024 1.0032 -1 -0.0024 290.2796 69.0455)" fill="#735744" font-family="'Georgia-Bold'" font-size="25.9299"> </text>
	</g>
	<g>
		<g>
			
				<ellipse transform="matrix(1 0.0024 -0.0024 1 0.1172 -0.7972)" fill="#735744" cx="333.718" cy="48.647" rx="16.25" ry="12.826"/>
			<path fill="#735744" d="M349.968,48.685c0,0-0.022,0.357-0.063,1.027c-0.056,0.667-0.243,1.643-0.671,2.824
				c-0.475,1.16-1.247,2.503-2.443,3.784c-1.19,1.282-2.795,2.492-4.743,3.418c-1.945,0.928-4.23,1.575-6.697,1.788
				c-2.471,0.194-5.103-0.039-7.702-0.829c-1.288-0.41-2.573-0.933-3.768-1.658c-1.211-0.693-2.345-1.567-3.325-2.608
				c-2.017-2.026-3.301-4.88-3.337-7.824c0.045-2.932,1.349-5.799,3.373-7.809c0.985-1.036,2.123-1.905,3.338-2.592
				c1.198-0.72,2.486-1.236,3.776-1.64c2.593-0.778,5.246-0.998,7.702-0.793c2.476,0.225,4.751,0.883,6.694,1.82
				c1.944,0.936,3.544,2.153,4.727,3.441c1.19,1.288,1.955,2.634,2.424,3.796c0.422,1.183,0.605,2.158,0.658,2.827
				C349.948,48.328,349.968,48.685,349.968,48.685z M349.968,48.685c0,0-0.024-0.357-0.069-1.027
				c-0.06-0.667-0.253-1.639-0.687-2.812c-0.481-1.153-1.256-2.483-2.452-3.749c-1.189-1.266-2.79-2.456-4.727-3.362
				c-1.932-0.908-4.205-1.535-6.636-1.73c-2.449-0.178-5.052,0.071-7.597,0.863c-1.264,0.411-2.522,0.932-3.687,1.649
				c-1.181,0.685-2.281,1.545-3.226,2.562c-1.95,1.988-3.145,4.716-3.17,7.528c0.006,2.801,1.195,5.554,3.133,7.544
				c0.94,1.021,2.036,1.887,3.214,2.577c1.161,0.723,2.417,1.25,3.679,1.667c2.532,0.804,5.154,1.065,7.589,0.899
				c2.442-0.184,4.711-0.799,6.649-1.698c1.941-0.897,3.547-2.08,4.743-3.34c1.202-1.26,1.984-2.586,2.47-3.737
				c0.439-1.172,0.637-2.141,0.7-2.808C349.942,49.042,349.968,48.685,349.968,48.685z"/>
		</g>
		<g>
			<path fill="#FFFFFF" d="M349.387,48.733c0,0-0.02,0.334-0.057,0.961c-0.049,0.624-0.219,1.537-0.604,2.647
				c-0.436,1.088-1.129,2.358-2.227,3.576c-1.09,1.219-2.572,2.377-4.383,3.268c-1.808,0.893-3.941,1.518-6.249,1.726
				c-2.312,0.189-4.775-0.037-7.201-0.798c-1.199-0.401-2.4-0.897-3.506-1.595c-1.12-0.67-2.175-1.496-3.072-2.492
				c-1.85-1.941-3.012-4.595-3.043-7.38c0.039-2.711,1.219-5.425,3.077-7.336c0.901-0.991,1.96-1.813,3.084-2.477
				c1.11-0.693,2.314-1.183,3.514-1.579c2.42-0.748,4.905-0.963,7.201-0.763c2.316,0.22,4.44,0.854,6.245,1.756
				c1.807,0.899,3.283,2.065,4.368,3.289c1.092,1.224,1.779,2.497,2.21,3.587c0.379,1.112,0.545,2.024,0.591,2.649
				C349.369,48.399,349.387,48.733,349.387,48.733z M349.387,48.733c0,0-0.022-0.334-0.063-0.96c-0.053-0.624-0.23-1.533-0.62-2.635
				c-0.442-1.081-1.14-2.338-2.238-3.54c-1.091-1.203-2.568-2.341-4.368-3.21c-1.794-0.872-3.915-1.475-6.186-1.664
				c-2.289-0.172-4.722,0.071-7.093,0.833c-1.174,0.402-2.347,0.896-3.423,1.586c-1.09,0.661-2.111,1.473-2.972,2.444
				c-1.784,1.902-2.859,4.432-2.88,7.092c0.003,2.586,1.072,5.186,2.845,7.075c0.857,0.975,1.874,1.792,2.961,2.458
				c1.073,0.695,2.244,1.194,3.416,1.602c2.358,0.773,4.81,1.027,7.085,0.867c2.281-0.179,4.398-0.772,6.199-1.635
				c1.804-0.861,3.287-1.992,4.383-3.19c1.104-1.197,1.808-2.451,2.255-3.53c0.396-1.101,0.577-2.008,0.633-2.632
				C349.364,49.067,349.387,48.733,349.387,48.733z"/>
		</g>
		<path fill="#FFFFFF" d="M328.187,45.896c0,0-1.644-0.232-2.766,1.067l-0.017,7.17c0,0,0.226,1.005,0.342,0.001l0.01-4.019
			c0,0,0.568,1.234,0.544,1.577c0,0-0.004,1.758-0.073,1.849c0,0-0.253,0.57-0.162,0.867c0,0,0.182,0.366,0.204,0.64
			c0,0,0.134,1.074,0.111,1.188c-0.023,0.114,0.181,0.617,0.112,0.959c-0.069,0.342-0.138,0.525-0.138,0.525s0.89,0.413,1.096,0.003
			c0,0-0.615-0.595-0.565-2.445l0.16-0.022c0,0,0.185-1.027,0.3-1.187c0,0,0.91,1.372,0.978,1.532
			c0.068,0.16,0.773,1.395,0.773,1.395l-0.001,0.434l-0.115,0.137l-0.001,0.343l0.206,0l0,0.114l0.993,0.002l0.001-0.258
			l-0.035-0.416l-0.154-0.037l-0.008-0.289c0,0-0.755-1.774-1.134-2.155c0,0,0.012-1.04,0.473-1.138l1.293,0.012l0-0.127
			c0,0-3.656-1.376-2.72-2.541c0,0,1.592-2.12,2.36-1.348c0,0,1.142,0.656,1.679,0.541c0,0,3.057,0.026,1.419,1.693
			c0,0-0.958,0.362-1.097,0.198c0,0-0.306,0.956-0.492,1.026c-0.187,0.07,1.633,0.121,1.61,0.051s1.308-0.51,1.82,0.144l0.745,0.632
			l-0.009,3.618l-0.176,0.023l-0.001,0.385l0.916,0.002c0,0,0.053-0.298,0.001-0.35c-0.052-0.052-0.139-0.139-0.139-0.139
			l0.004-1.751c0,0,0.431-0.741,0.455-1.17c0,0,0.682,0.86,0.785,1.393c0,0,0.552,1.81,0.494,1.949l1.021-0.032l-0.069-0.163
			c0,0-0.97-1.788-0.992-2.043l-0.044-1.137l-0.127-0.29l0.012-0.128c0,0,0.452-0.011,0.418-0.022
			c-0.035-0.012,0.987-0.612,1.474-0.368c0.486,0.245,0.775,0.756,0.775,0.756l-0.001,0.533l-0.001,0.263c0,0,1.79,1.975,2.24,1.829
			c0,0,1.055,0.305,1.065-0.611c0,0-0.586-2.167-0.457-2.678c-0.109-0.037-0.2-0.329-0.2-0.329l0.001-0.347l-0.182-0.073
			l0.038-0.693c0,0-0.199-0.529-0.62,0.053l-0.328-0.019c0,0-2.382-3.051-2.472-3.362c0,0-0.851-2.5-1.618-2.083
			c0,0,1.471,2.538-0.484,4.139c0,0-0.493,0.364-1.477-0.204c0,0-3.479-1.905-3.623-2.744l-0.013-2.079c0,0-1.413,0.042-1.459-0.003
			c-0.046-0.046-0.001,0.438-0.001,0.438s-0.969,0.91-1.042,1.073c0,0,0.38,1.35-2.63,1.471l-0.09-0.529l-1.146-1.042
			L328.187,45.896z"/>
		<g>
			<text transform="matrix(1 0.0024 -0.0024 1 321.1353 44.9143)"><tspan x="0" y="0" fill="#231F20" stroke="#EC2227" stroke-width="0.75" stroke-miterlimit="10" font-family="'Georgia-Bold'" font-size="5.2168">  </tspan><tspan x="2.649" y="0" fill="#231F20" font-family="'Georgia-Bold'" font-size="5.2168">   </tspan><tspan x="6.623" y="0" fill="#FFFFFF" font-family="'Georgia-Bold'" font-size="5.2168">MOO</tspan></text>
		</g>
		
			<text transform="matrix(1.1553 0.0028 -0.0024 1 325.8399 41.0699)" fill="#FFFFFF" font-family="'Georgia-Bold'" font-size="2.622">THE</text>
		
			<text transform="matrix(1.1553 0.0028 -0.0024 1 340.0729 46.8079)" fill="#FFFFFF" font-family="'Georgia-Bold'" font-size="2.2726">INC.</text>
	</g>
	<rect x="313.185" y="68.355" transform="matrix(1 0.0024 -0.0024 1 0.2262 -0.7928)" fill="none" width="37.5" height="51.857"/>
	<text transform="matrix(1 0.0024 -0.0024 1 314.4196 71.7224)" opacity="0.4"><tspan x="0" y="0" fill="#4E4E56" font-family="'Georgia'" font-size="4.4789">“We bring to your </tspan><tspan x="-0.257" y="5.375" fill="#4E4E56" font-family="'Georgia'" font-size="4.4789">home the BEST of </tspan><tspan x="8.688" y="10.749" fill="#4E4E56" font-family="'Georgia'" font-size="4.4789">the Best”</tspan></text>
	
		<text transform="matrix(-0.0024 1.0032 -1 -0.0024 259.8619 28.8433)" fill="#FFFFFF" font-family="'Georgia-Bold'" font-size="70.7179">MILK</text>
	
		<rect x="312.843" y="236.473" transform="matrix(-1 -0.0024 0.0024 -1 664.3935 475.8445)" fill="#735744" width="39.277" height="2.106"/>
	<text transform="matrix(1.0032 0.0024 -0.0024 1 319.9615 233.9656)" fill="#010101" font-family="'Georgia'" font-size="7.0719">Chocolate</text>
</g>
<g>
	
		<image overflow="visible" width="750" height="1481" xlink:href="../../../Artwork/Assignment 2/Design/Links/carton.jpg"  transform="matrix(0.1719 0 0 0.1719 0 0.1537)">
	</image>
	<rect x="16.724" y="30.466" fill="#FFFFFF" stroke="#231F20" stroke-width="0.25" width="97.891" height="210.702"/>
	<g>
		<rect x="17.013" y="30.6" fill="#FF86B4" width="53.856" height="211.379"/>
		<text transform="matrix(0 1.0032 -1 0 52.5627 69.2099)" fill="#FF86B4" font-family="'Georgia-Bold'" font-size="25.9301"> </text>
	</g>
	<rect x="75.338" y="68.285" fill="none" width="37.5" height="51.857"/>
	<text transform="matrix(1 0 0 1 76.4963 71.6703)" opacity="0.4"><tspan x="0" y="0" fill="#4E4E56" font-family="'Georgia'" font-size="4.4788">“We bring to your </tspan><tspan x="-0.257" y="5.375" fill="#4E4E56" font-family="'Georgia'" font-size="4.4788">home the BEST of </tspan><tspan x="8.688" y="10.749" fill="#4E4E56" font-family="'Georgia'" font-size="4.4788">the Best”</tspan></text>
	<text transform="matrix(0 1.0032 -1 0 22.2444 32.4105)" fill="#FFFFFF" font-family="'Georgia-Bold'" font-size="70.7184">MILK</text>
	<rect x="75.338" y="236.4" fill="#FF86B4" width="39.277" height="2.106"/>
	<text transform="matrix(1.0032 0 0 1 77.552 233.7841)" fill="#010101" font-family="'Georgia'" font-size="7.0718">Strawberry</text>
</g>
<g>
	
		<image overflow="visible" width="750" height="1481" xlink:href="../../../Artwork/Assignment 2/Design/Links/carton.jpg"  transform="matrix(0.1719 0 0 0.1719 116.6116 0.1537)">
	</image>
	<rect x="133.335" y="30.466" fill="#FFFFFF" stroke="#231F20" stroke-width="0.25" width="97.891" height="210.702"/>
	<g>
		<rect x="133.625" y="30.6" fill="#FFC600" width="53.856" height="211.379"/>
		<text transform="matrix(0 1.0032 -1 0 169.174 69.2099)" fill="#FFC600" font-family="'Georgia-Bold'" font-size="25.9301"> </text>
	</g>
	<rect x="191.95" y="68.285" fill="none" width="37.5" height="51.857"/>
	<text transform="matrix(1 0 0 1 193.1067 71.6703)" opacity="0.4"><tspan x="0" y="0" fill="#4E4E56" font-family="'Georgia'" font-size="4.4788">“We bring to your </tspan><tspan x="-0.257" y="5.375" fill="#4E4E56" font-family="'Georgia'" font-size="4.4788">home the BEST of </tspan><tspan x="8.688" y="10.749" fill="#4E4E56" font-family="'Georgia'" font-size="4.4788">the Best”</tspan></text>
	<text transform="matrix(0 1.0032 -1 0 136.774 33.0896)" fill="#FFFFFF" font-family="'Georgia-Bold'" font-size="70.7184">MILK</text>
	<rect x="191.949" y="236.4" fill="#FFC600" width="39.277" height="2.106"/>
	<text transform="matrix(1.0032 0 0 1 203.3508 233.7841)" fill="#010101" font-family="'Georgia'" font-size="7.0718">Vanilla</text>
	<g>
		<ellipse transform="matrix(1 0.0024 -0.0024 1 0.1102 -0.5082)" fill="#FFC600" cx="212.765" cy="45.88" rx="16.25" ry="12.826"/>
		<g>
			<path fill="#FFFFFF" d="M228.435,45.967c0,0-0.02,0.334-0.057,0.961c-0.049,0.624-0.219,1.537-0.604,2.647
				c-0.436,1.088-1.129,2.358-2.227,3.576c-1.09,1.219-2.572,2.377-4.383,3.268c-1.808,0.893-3.941,1.518-6.249,1.726
				c-2.312,0.189-4.775-0.037-7.201-0.798c-1.199-0.401-2.4-0.897-3.506-1.595c-1.12-0.67-2.175-1.496-3.072-2.492
				c-1.851-1.934-3.011-4.611-3.043-7.365c0.04-2.742,1.22-5.434,3.078-7.351c0.901-0.991,1.96-1.813,3.084-2.477
				c1.11-0.693,2.314-1.183,3.514-1.579c2.42-0.748,4.905-0.963,7.201-0.763c2.316,0.22,4.44,0.854,6.245,1.756
				c1.807,0.899,3.283,2.065,4.368,3.289c1.092,1.224,1.779,2.497,2.21,3.587c0.379,1.112,0.545,2.024,0.591,2.649
				C228.417,45.632,228.435,45.967,228.435,45.967z M228.435,45.967c0,0-0.022-0.334-0.063-0.96c-0.053-0.624-0.23-1.533-0.62-2.635
				c-0.442-1.081-1.14-2.338-2.238-3.54c-1.091-1.203-2.568-2.341-4.368-3.21c-1.794-0.872-3.915-1.475-6.186-1.664
				c-2.289-0.172-4.722,0.071-7.093,0.833c-1.174,0.402-2.347,0.896-3.423,1.586c-1.09,0.661-2.111,1.473-2.972,2.444
				c-1.784,1.895-2.859,4.447-2.88,7.076c0.002,2.617,1.072,5.194,2.845,7.091c0.857,0.975,1.874,1.792,2.961,2.458
				c1.073,0.695,2.244,1.194,3.416,1.602c2.358,0.773,4.81,1.027,7.085,0.867c2.281-0.179,4.398-0.772,6.199-1.635
				c1.804-0.861,3.287-1.992,4.383-3.19c1.104-1.197,1.808-2.451,2.255-3.53c0.396-1.101,0.577-2.008,0.633-2.632
				C228.411,46.301,228.435,45.967,228.435,45.967z"/>
		</g>
		<path fill="#FFFFFF" d="M207.234,43.13c0,0-1.644-0.232-2.766,1.067l-0.017,7.17c0,0,0.226,1.005,0.343,0.001l0.01-4.019
			c0,0,0.568,1.234,0.544,1.577c0,0-0.004,1.758-0.073,1.849c0,0-0.253,0.57-0.162,0.867c0,0,0.182,0.366,0.204,0.64
			c0,0,0.134,1.074,0.111,1.188s0.181,0.617,0.112,0.959s-0.138,0.525-0.138,0.525s0.89,0.413,1.096,0.003
			c0,0-0.615-0.595-0.565-2.445l0.16-0.022c0,0,0.185-1.027,0.3-1.187c0,0,0.91,1.372,0.978,1.532
			c0.068,0.16,0.773,1.395,0.773,1.395l-0.001,0.434l-0.115,0.137l-0.001,0.343l0.206,0l0,0.114l0.993,0.002l0.001-0.258
			l-0.035-0.416l-0.154-0.037l-0.008-0.289c0,0-0.755-1.774-1.134-2.155c0,0,0.012-1.04,0.473-1.138l1.293,0.012l0-0.127
			c0,0-3.656-1.376-2.72-2.541c0,0,1.592-2.12,2.36-1.348c0,0,1.142,0.656,1.679,0.541c0,0,3.057,0.026,1.419,1.693
			c0,0-0.958,0.362-1.097,0.198c0,0-0.306,0.956-0.492,1.026c-0.187,0.07,1.633,0.121,1.61,0.051c-0.023-0.07,1.308-0.51,1.82,0.144
			l0.745,0.632l-0.009,3.618l-0.176,0.023l-0.001,0.385l0.916,0.002c0,0,0.053-0.298,0.001-0.35s-0.139-0.139-0.139-0.139
			l0.004-1.751c0,0,0.431-0.741,0.455-1.17c0,0,0.682,0.86,0.785,1.393c0,0,0.552,1.81,0.494,1.949l1.021-0.032l-0.069-0.163
			c0,0-0.97-1.788-0.992-2.043l-0.044-1.137l-0.127-0.29l0.012-0.128c0,0,0.452-0.011,0.418-0.022
			c-0.035-0.012,0.987-0.612,1.474-0.368c0.486,0.245,0.775,0.756,0.775,0.756l-0.001,0.533l-0.001,0.263c0,0,1.79,1.975,2.24,1.829
			c0,0,1.055,0.305,1.065-0.611c0,0-0.586-2.167-0.457-2.678c-0.109-0.037-0.2-0.329-0.2-0.329l0.001-0.347l-0.182-0.073
			l0.038-0.693c0,0-0.199-0.529-0.62,0.053l-0.328-0.019c0,0-2.382-3.051-2.472-3.362c0,0-0.851-2.5-1.618-2.083
			c0,0,1.471,2.538-0.484,4.139c0,0-0.493,0.364-1.477-0.204c0,0-3.479-1.905-3.623-2.744l-0.013-2.079c0,0-1.413,0.042-1.459-0.003
			c-0.045-0.046-0.001,0.438-0.001,0.438s-0.969,0.91-1.042,1.073c0,0,0.38,1.35-2.63,1.471l-0.09-0.529l-1.146-1.042L207.234,43.13
			z"/>
		<g>
			<text transform="matrix(1 0.0024 -0.0024 1 200.1803 42.1476)"><tspan x="0" y="0" fill="#231F20" stroke="#EC2227" stroke-width="0.75" stroke-miterlimit="10" font-family="'Georgia-Bold'" font-size="5.2168">  </tspan><tspan x="2.649" y="0" fill="#231F20" font-family="'Georgia-Bold'" font-size="5.2168">   </tspan><tspan x="6.623" y="0" fill="#FFFFFF" font-family="'Georgia-Bold'" font-size="5.2168">MOO</tspan></text>
		</g>
		
			<text transform="matrix(1.1553 0.0028 -0.0024 1 204.8869 38.3032)" fill="#FFFFFF" font-family="'Georgia-Bold'" font-size="2.622">THE</text>
		
			<text transform="matrix(1.1553 0.0028 -0.0024 1 219.1198 44.0413)" fill="#FFFFFF" font-family="'Georgia-Bold'" font-size="2.2726">INC.</text>
	</g>
</g>
</svg>
