<?xml version="1.0" encoding="utf-8"?>
<!-- Generator: Adobe Illustrator 17.0.2, SVG Export Plug-In . SVG Version: 6.00 Build 0)  -->
<!DOCTYPE svg PUBLIC "-//W3C//DTD SVG 1.1//EN" "http://www.w3.org/Graphics/SVG/1.1/DTD/svg11.dtd">
<svg version="1.1" id="Layer_1" xmlns="http://www.w3.org/2000/svg" xmlns:xlink="http://www.w3.org/1999/xlink" x="0px" y="0px"
	 width="143.95px" height="99.993px" viewBox="-1.507 91.673 143.95 99.993" enable-background="new -1.507 91.673 143.95 99.993"
	 xml:space="preserve">
<g>
	
		<image overflow="visible" width="750" height="1481" xlink:href="../../../Artwork/Assignment 2/Design/Links/carton.jpg"  transform="matrix(0.0674 1.611284e-04 -1.611284e-04 0.0674 91.8661 91.6727)">
	</image>
	
		<rect x="98.298" y="103.623" transform="matrix(1 0.0024 -0.0024 1 0.3467 -0.2803)" fill="#FFFFFF" stroke="#231F20" stroke-width="0.25" width="38.393" height="82.639"/>
	<g>
		
			<rect x="98.411" y="103.655" transform="matrix(1 0.0024 -0.0024 1 0.347 -0.26)" fill="#735744" width="21.123" height="82.904"/>
		
			<text transform="matrix(-0.0024 1.0032 -1 -0.0024 112.3416 118.7531)" fill="#735744" font-family="'Georgia-Bold'" font-size="10.1699"> </text>
	</g>
	<g>
		<g>
			
				<ellipse transform="matrix(1 0.0024 -0.0024 1 0.265 -0.3088)" fill="#735744" cx="129.379" cy="110.752" rx="6.373" ry="5.031"/>
			<path fill="#735744" d="M135.752,110.767c0,0-0.008,0.14-0.023,0.403c-0.021,0.262-0.094,0.645-0.261,1.109
				c-0.185,0.456-0.487,0.984-0.955,1.489c-0.466,0.506-1.097,0.977-1.856,1.357c-0.76,0.377-1.657,0.646-2.632,0.745
				c-0.979,0.091-2.016,0.016-3.06-0.284c-1.029-0.302-2.061-0.84-2.852-1.682c-0.813-0.813-1.34-1.969-1.357-3.167
				c0.018-1.186,0.556-2.359,1.371-3.161c0.796-0.838,1.83-1.372,2.86-1.669c2.08-0.595,4.178-0.281,5.69,0.488
				c1.537,0.753,2.455,1.94,2.798,2.859c0.165,0.465,0.235,0.848,0.255,1.11C135.745,110.627,135.752,110.767,135.752,110.767z
				 M135.752,110.767c0,0-0.01-0.14-0.028-0.403c-0.024-0.261-0.101-0.642-0.272-1.101c-0.36-0.9-1.277-2.086-2.823-2.768
				c-1.51-0.695-3.573-0.906-5.538-0.255c-0.969,0.329-1.917,0.867-2.641,1.642c-0.744,0.766-1.186,1.787-1.195,2.854
				c0,1.055,0.443,2.098,1.181,2.86c0.72,0.779,1.666,1.323,2.633,1.656c0.968,0.326,1.993,0.444,2.938,0.394
				c0.951-0.057,1.84-0.283,2.603-0.623c1.548-0.675,2.471-1.856,2.835-2.755c0.173-0.459,0.252-0.838,0.277-1.1
				C135.742,110.907,135.752,110.767,135.752,110.767z"/>
		</g>
		<g>
			<path fill="#FFFFFF" d="M135.524,110.786c0,0-0.015,0.13-0.044,0.374c-0.032,0.244-0.037,0.61-0.237,1.032
				c-0.129,0.445-0.446,0.92-0.852,1.411c-0.433,0.475-1.007,0.932-1.713,1.293c-0.363,0.158-0.726,0.371-1.15,0.454
				c-0.208,0.056-0.418,0.113-0.633,0.172c-0.216,0.048-0.443,0.052-0.67,0.081c-0.232,0.017-0.45,0.059-0.703,0.056
				c-0.231-0.014-0.464-0.029-0.701-0.043c-0.471,0.009-0.959-0.166-1.456-0.265c-0.94-0.337-1.937-0.781-2.645-1.616
				c-0.724-0.793-1.217-1.849-1.248-2.978c0.026-1.081,0.536-2.201,1.262-2.973c0.712-0.831,1.712-1.274,2.652-1.604
				c0.495-0.094,0.968-0.267,1.455-0.258c0.24-0.014,0.479-0.027,0.714-0.04c0.254,0,0.464,0.042,0.693,0.06
				c0.224,0.03,0.446,0.034,0.663,0.084c0.216,0.059,0.428,0.118,0.637,0.175c0.427,0.086,0.788,0.3,1.15,0.46
				c0.705,0.364,1.276,0.825,1.707,1.302c0.404,0.493,0.719,0.97,0.845,1.414c0.198,0.422,0.201,0.79,0.232,1.034
				C135.51,110.656,135.524,110.786,135.524,110.786z M135.524,110.786c0,0-0.017-0.13-0.049-0.374
				c-0.035-0.243-0.045-0.609-0.249-1.026c-0.133-0.439-0.454-0.907-0.862-1.387c-0.435-0.462-1.003-0.918-1.716-1.238
				c-0.363-0.141-0.725-0.335-1.141-0.399c-0.202-0.047-0.408-0.094-0.617-0.143c-0.211-0.039-0.438-0.034-0.662-0.054
				c-0.22-0.008-0.465-0.041-0.672-0.029c-0.226,0.023-0.455,0.046-0.686,0.07c-0.468,0.01-0.913,0.199-1.378,0.307
				c-0.229,0.068-0.439,0.194-0.662,0.288c-0.221,0.1-0.446,0.195-0.637,0.35l-0.607,0.414l-0.524,0.521
				c-0.654,0.754-1.061,1.633-1.092,2.672c0.014,0.991,0.43,1.938,1.079,2.678c0.636,0.769,1.55,1.221,2.421,1.585
				c0.462,0.108,0.89,0.299,1.375,0.313c0.235,0.025,0.468,0.05,0.698,0.074c0.208,0.011,0.446-0.019,0.663-0.026
				c0.221-0.018,0.443-0.012,0.655-0.05c0.211-0.047,0.418-0.094,0.623-0.14c0.419-0.063,0.781-0.255,1.145-0.395
				c0.714-0.316,1.284-0.771,1.721-1.23c0.41-0.478,0.734-0.945,0.868-1.383c0.206-0.415,0.218-0.783,0.254-1.025
				C135.507,110.916,135.524,110.786,135.524,110.786z"/>
		</g>
		<path fill="#FFFFFF" d="M127.209,109.673c0,0-0.645-0.091-1.085,0.418l-0.007,2.812c0,0,0.089,0.394,0.134,0l0.004-1.576
			c0,0,0.223,0.484,0.213,0.618c0,0-0.002,0.69-0.029,0.725c0,0-0.099,0.224-0.063,0.34c0,0,0.071,0.143,0.08,0.251
			c0,0,0.053,0.421,0.044,0.466c-0.009,0.045,0.071,0.242,0.044,0.376c-0.027,0.134-0.054,0.206-0.054,0.206s0.349,0.162,0.43,0.001
			c0,0-0.241-0.233-0.222-0.959l0.063-0.009c0,0,0.073-0.403,0.118-0.465c0,0,0.357,0.538,0.384,0.601
			c0.027,0.063,0.303,0.547,0.303,0.547l0,0.17l-0.045,0.054l0,0.134l0.081,0l0,0.045l0.389,0.001l0-0.101l-0.014-0.163l-0.06-0.014
			l-0.003-0.113c0,0-0.296-0.696-0.445-0.845c0,0,0.005-0.408,0.185-0.446l0.507,0.005l0-0.05c0,0-1.434-0.54-1.067-0.997
			c0,0,0.624-0.831,0.926-0.529c0,0,0.448,0.257,0.658,0.212c0,0,1.199,0.01,0.557,0.664c0,0-0.376,0.142-0.43,0.078
			c0,0-0.12,0.375-0.193,0.402c-0.073,0.027,0.641,0.047,0.631,0.02c-0.009-0.027,0.513-0.2,0.714,0.057l0.292,0.248l-0.003,1.419
			l-0.069,0.009l0,0.151l0.359,0.001c0,0,0.021-0.117,0-0.137s-0.054-0.055-0.054-0.055l0.002-0.687c0,0,0.169-0.291,0.178-0.459
			c0,0,0.268,0.337,0.308,0.547c0,0,0.217,0.71,0.194,0.765l0.4-0.013l-0.027-0.064c0,0-0.38-0.701-0.389-0.801l-0.017-0.446
			l-0.05-0.114l0.005-0.05c0,0,0.177-0.004,0.164-0.009c-0.014-0.005,0.387-0.24,0.578-0.144c0.191,0.096,0.304,0.296,0.304,0.296
			l-0.001,0.209l0,0.103c0,0,0.702,0.775,0.879,0.717c0,0,0.414,0.12,0.418-0.239c0,0-0.23-0.85-0.179-1.05
			c-0.043-0.014-0.078-0.129-0.078-0.129l0-0.136l-0.071-0.029l0.015-0.272c0,0-0.078-0.208-0.243,0.021l-0.129-0.007
			c0,0-0.934-1.197-0.97-1.318c0,0-0.334-0.981-0.635-0.817c0,0,0.577,0.996-0.19,1.623c0,0-0.193,0.143-0.579-0.08
			c0,0-1.364-0.747-1.421-1.076l-0.005-0.815c0,0-0.554,0.017-0.572-0.001s0,0.172,0,0.172s-0.38,0.357-0.409,0.421
			c0,0,0.149,0.53-1.031,0.577l-0.035-0.208l-0.45-0.409L127.209,109.673z"/>
		<g>
			<text transform="matrix(1 0.0024 -0.0024 1 124.4347 109.2789)"><tspan x="0" y="0" fill="#231F20" stroke="#ED1C24" stroke-width="0.75" stroke-miterlimit="10" font-family="'Georgia-Bold'" font-size="2.0461">  </tspan><tspan x="1.039" y="0" fill="#231F20" font-family="'Georgia-Bold'" font-size="2.0461">   </tspan><tspan x="2.598" y="0" fill="#FFFFFF" font-family="'Georgia-Bold'" font-size="2.0461">MOO</tspan></text>
		</g>
		
			<text transform="matrix(1.1553 0.0028 -0.0024 1 126.2799 107.7712)" fill="#FFFFFF" font-family="'Georgia-Bold'" font-size="1.0284">THE</text>
		
			<text transform="matrix(1.1553 0.0028 -0.0024 1 131.8618 110.0215)" fill="#FFFFFF" font-family="'Georgia-Bold'" font-size="0.8913">INC.</text>
	</g>
	
		<rect x="121.326" y="118.482" transform="matrix(1 0.0024 -0.0024 1 0.3078 -0.3071)" fill="none" width="14.708" height="20.339"/>
	<text transform="matrix(1 0.0024 -0.0024 1 121.8233 119.8236)" opacity="0.4"><tspan x="0" y="0" fill="#4E4E56" font-family="'Georgia'" font-size="1.7566">“We bring to your </tspan><tspan x="-0.101" y="2.107" fill="#4E4E56" font-family="'Georgia'" font-size="1.7566">home the BEST of </tspan><tspan x="3.408" y="4.216" fill="#4E4E56" font-family="'Georgia'" font-size="1.7566">the Best”</tspan></text>
	
		<text transform="matrix(-0.0024 1.0032 -1 -0.0024 100.4115 102.9844)" fill="#FFFFFF" font-family="'Georgia-Bold'" font-size="27.7362">MILK</text>
	
		<rect x="121.192" y="184.419" transform="matrix(-1 -0.0024 0.0024 -1 257.3456 369.9708)" fill="#735744" width="15.405" height="0.826"/>
	<text transform="matrix(1.0032 0.0024 -0.0024 1 123.974 183.4258)" font-family="'Georgia'" font-size="2.7736">Chocolate</text>
</g>
<g>
	
		<image overflow="visible" width="750" height="1481" xlink:href="../../../Artwork/Assignment 2/Design/Links/carton.jpg"  transform="matrix(0.0674 0 0 0.0674 -1.5074 91.7329)">
	</image>
	<rect x="5.052" y="103.622" fill="#FFFFFF" stroke="#231F20" stroke-width="0.25" width="38.393" height="82.639"/>
	<g>
		<rect x="5.165" y="103.674" fill="#FF86B4" width="21.123" height="82.904"/>
		<text transform="matrix(0 1.0032 -1 0 19.1081 118.8175)" fill="#FF86B4" font-family="'Georgia-Bold'" font-size="10.1699"> </text>
	</g>
	<rect x="28.041" y="118.454" fill="none" width="14.708" height="20.339"/>
	<text transform="matrix(1 0 0 1 28.4938 119.7824)" opacity="0.4"><tspan x="0" y="0" fill="#4E4E56" font-family="'Georgia'" font-size="1.7566">“We bring to your </tspan><tspan x="-0.101" y="2.107" fill="#4E4E56" font-family="'Georgia'" font-size="1.7566">home the BEST of </tspan><tspan x="3.408" y="4.216" fill="#4E4E56" font-family="'Georgia'" font-size="1.7566">the Best”</tspan></text>
	<text transform="matrix(0 1.0032 -1 0 7.2165 104.3839)" fill="#FFFFFF" font-family="'Georgia-Bold'" font-size="27.7362">MILK</text>
	<rect x="28.041" y="184.39" fill="#FF86B4" width="15.405" height="0.826"/>
	<text transform="matrix(1.0032 0 0 1 28.9089 183.3644)" font-family="'Georgia'" font-size="2.7736">Strawberry</text>
</g>
<g>
	
		<image overflow="visible" width="750" height="1481" xlink:href="../../../Artwork/Assignment 2/Design/Links/carton.jpg"  transform="matrix(0.0674 0 0 0.0674 44.2285 91.7329)">
	</image>
	<rect x="50.788" y="103.622" fill="#FFFFFF" stroke="#231F20" stroke-width="0.25" width="38.393" height="82.639"/>
	<g>
		<rect x="50.901" y="103.674" fill="#FFC600" width="21.123" height="82.904"/>
		<text transform="matrix(0 1.0032 -1 0 64.8434 118.8175)" fill="#FFC600" font-family="'Georgia-Bold'" font-size="10.1699"> </text>
	</g>
	<rect x="73.776" y="118.454" fill="none" width="14.708" height="20.339"/>
	<text transform="matrix(1 0 0 1 74.2302 119.7824)" opacity="0.4"><tspan x="0" y="0" fill="#4E4E56" font-family="'Georgia'" font-size="1.7566">“We bring to your </tspan><tspan x="-0.101" y="2.107" fill="#4E4E56" font-family="'Georgia'" font-size="1.7566">home the BEST of </tspan><tspan x="3.408" y="4.216" fill="#4E4E56" font-family="'Georgia'" font-size="1.7566">the Best”</tspan></text>
	<text transform="matrix(0 1.0032 -1 0 52.1365 104.6506)" fill="#FFFFFF" font-family="'Georgia-Bold'" font-size="27.7362">MILK</text>
	<rect x="73.776" y="184.39" fill="#FFC600" width="15.405" height="0.826"/>
	<text transform="matrix(1.0032 0 0 1 78.2477 183.3644)" font-family="'Georgia'" font-size="2.7736">Vanilla</text>
	<g>
		<ellipse transform="matrix(1 0.0024 -0.0024 1 0.2623 -0.1955)" fill="#FFC600" cx="81.941" cy="109.667" rx="6.373" ry="5.031"/>
		<g>
			<path fill="#FFFFFF" d="M88.086,109.701c0,0-0.015,0.13-0.044,0.374c-0.032,0.244-0.037,0.61-0.237,1.032
				c-0.129,0.445-0.446,0.92-0.852,1.411c-0.433,0.475-1.007,0.932-1.713,1.293c-0.363,0.158-0.726,0.371-1.15,0.454
				c-0.208,0.056-0.418,0.113-0.633,0.172c-0.216,0.048-0.443,0.052-0.67,0.081c-0.232,0.017-0.45,0.059-0.703,0.056
				c-0.231-0.014-0.464-0.029-0.701-0.043c-0.471,0.009-0.959-0.166-1.456-0.265c-0.94-0.337-1.937-0.781-2.645-1.616
				c-0.724-0.793-1.217-1.85-1.248-2.978c0.026-1.081,0.536-2.201,1.262-2.973c0.712-0.831,1.712-1.274,2.652-1.604
				c0.495-0.094,0.968-0.267,1.455-0.258c0.24-0.014,0.479-0.027,0.714-0.04c0.254,0,0.464,0.042,0.693,0.06
				c0.224,0.03,0.446,0.034,0.662,0.084c0.216,0.059,0.428,0.118,0.637,0.175c0.427,0.086,0.788,0.3,1.15,0.46
				c0.705,0.364,1.276,0.825,1.707,1.302c0.404,0.493,0.719,0.97,0.845,1.414c0.198,0.422,0.201,0.79,0.232,1.034
				C88.072,109.571,88.086,109.701,88.086,109.701z M88.086,109.701c0,0-0.017-0.13-0.049-0.374
				c-0.035-0.243-0.045-0.609-0.249-1.026c-0.133-0.439-0.454-0.907-0.862-1.387c-0.435-0.462-1.003-0.918-1.716-1.238
				c-0.363-0.141-0.725-0.335-1.141-0.399c-0.202-0.047-0.408-0.094-0.617-0.143c-0.211-0.039-0.438-0.034-0.662-0.054
				c-0.22-0.008-0.465-0.041-0.672-0.029c-0.226,0.023-0.455,0.046-0.686,0.07c-0.468,0.01-0.913,0.199-1.378,0.307
				c-0.229,0.068-0.439,0.194-0.662,0.288c-0.221,0.1-0.446,0.195-0.637,0.35l-0.607,0.414l-0.524,0.521
				c-0.654,0.754-1.061,1.633-1.092,2.672c0.014,0.991,0.43,1.938,1.079,2.678c0.636,0.769,1.55,1.221,2.421,1.585
				c0.462,0.108,0.89,0.299,1.375,0.313c0.235,0.025,0.468,0.05,0.698,0.074c0.208,0.011,0.446-0.019,0.663-0.026
				c0.221-0.018,0.443-0.012,0.655-0.05c0.211-0.047,0.418-0.094,0.623-0.14c0.419-0.063,0.781-0.255,1.145-0.395
				c0.715-0.316,1.284-0.771,1.722-1.23c0.41-0.478,0.734-0.945,0.868-1.383c0.206-0.415,0.218-0.783,0.254-1.025
				C88.069,109.831,88.086,109.701,88.086,109.701z"/>
		</g>
		<path fill="#FFFFFF" d="M79.771,108.588c0,0-0.645-0.091-1.085,0.418l-0.007,2.812c0,0,0.089,0.394,0.134,0l0.004-1.576
			c0,0,0.223,0.484,0.213,0.618c0,0-0.002,0.69-0.029,0.725c0,0-0.099,0.224-0.063,0.34c0,0,0.071,0.143,0.08,0.251
			c0,0,0.053,0.421,0.044,0.466c-0.009,0.045,0.071,0.242,0.044,0.376c-0.027,0.134-0.054,0.206-0.054,0.206s0.349,0.162,0.43,0.001
			c0,0-0.241-0.233-0.222-0.959l0.063-0.009c0,0,0.073-0.403,0.118-0.465c0,0,0.357,0.538,0.384,0.601
			c0.027,0.063,0.303,0.547,0.303,0.547l0,0.17l-0.045,0.054l0,0.134l0.081,0l0,0.045l0.389,0.001l0-0.101l-0.014-0.163l-0.06-0.014
			l-0.003-0.113c0,0-0.296-0.696-0.445-0.845c0,0,0.005-0.408,0.185-0.446l0.507,0.005l0-0.05c0,0-1.434-0.54-1.067-0.997
			c0,0,0.624-0.831,0.926-0.529c0,0,0.448,0.257,0.658,0.212c0,0,1.199,0.01,0.557,0.664c0,0-0.376,0.142-0.43,0.078
			c0,0-0.12,0.375-0.193,0.402c-0.073,0.027,0.641,0.047,0.631,0.02c-0.009-0.027,0.513-0.2,0.714,0.057l0.292,0.248l-0.003,1.419
			l-0.069,0.009l0,0.151l0.359,0.001c0,0,0.021-0.117,0-0.137s-0.054-0.055-0.054-0.055l0.002-0.687c0,0,0.169-0.291,0.178-0.459
			c0,0,0.268,0.337,0.308,0.547c0,0,0.217,0.71,0.194,0.765l0.4-0.013l-0.027-0.064c0,0-0.38-0.701-0.389-0.801l-0.017-0.446
			l-0.05-0.114l0.005-0.05c0,0,0.177-0.004,0.164-0.009c-0.014-0.005,0.387-0.24,0.578-0.144c0.191,0.096,0.304,0.296,0.304,0.296
			l0,0.209l0,0.103c0,0,0.702,0.775,0.879,0.717c0,0,0.414,0.12,0.418-0.239c0,0-0.23-0.85-0.179-1.05
			c-0.043-0.014-0.078-0.129-0.078-0.129l0-0.136l-0.071-0.029l0.015-0.272c0,0-0.078-0.208-0.243,0.021l-0.129-0.007
			c0,0-0.934-1.197-0.97-1.318c0,0-0.334-0.981-0.635-0.817c0,0,0.577,0.996-0.19,1.623c0,0-0.193,0.143-0.579-0.08
			c0,0-1.364-0.747-1.421-1.076l-0.005-0.815c0,0-0.554,0.017-0.572-0.001c-0.018-0.018,0,0.172,0,0.172s-0.38,0.357-0.409,0.421
			c0,0,0.149,0.53-1.031,0.577l-0.035-0.208l-0.45-0.409L79.771,108.588z"/>
		<g>
			<text transform="matrix(1 0.0024 -0.0024 1 76.9963 108.1939)"><tspan x="0" y="0" fill="#231F20" stroke="#ED1C24" stroke-width="0.75" stroke-miterlimit="10" font-family="'Georgia-Bold'" font-size="2.0461">  </tspan><tspan x="1.039" y="0" fill="#231F20" font-family="'Georgia-Bold'" font-size="2.0461">   </tspan><tspan x="2.598" y="0" fill="#FFFFFF" font-family="'Georgia-Bold'" font-size="2.0461">MOO</tspan></text>
		</g>
		
			<text transform="matrix(1.1553 0.0028 -0.0024 1 78.8416 106.6861)" fill="#FFFFFF" font-family="'Georgia-Bold'" font-size="1.0284">THE</text>
		
			<text transform="matrix(1.1553 0.0028 -0.0024 1 84.4235 108.9365)" fill="#FFFFFF" font-family="'Georgia-Bold'" font-size="0.8913">INC.</text>
	</g>
</g>
<g>
	<ellipse transform="matrix(1 0.0024 -0.0024 1 0.2621 -0.0861)" fill="#FF86B4" cx="36.158" cy="109.667" rx="6.373" ry="5.031"/>
	<g>
		<path fill="#FFFFFF" d="M42.303,109.701c0,0-0.015,0.13-0.044,0.374c-0.032,0.244-0.037,0.61-0.237,1.032
			c-0.129,0.445-0.446,0.92-0.852,1.411c-0.433,0.475-1.007,0.932-1.713,1.293c-0.363,0.158-0.726,0.371-1.15,0.454
			c-0.208,0.056-0.418,0.113-0.633,0.172c-0.216,0.048-0.443,0.052-0.67,0.081c-0.232,0.017-0.45,0.059-0.703,0.056
			c-0.231-0.014-0.464-0.029-0.701-0.043c-0.471,0.009-0.959-0.166-1.456-0.265c-0.94-0.337-1.937-0.781-2.645-1.616
			c-0.724-0.793-1.217-1.85-1.248-2.978c0.026-1.081,0.536-2.201,1.262-2.973c0.712-0.831,1.712-1.274,2.652-1.604
			c0.495-0.094,0.968-0.267,1.455-0.258c0.24-0.014,0.479-0.027,0.714-0.04c0.254,0,0.464,0.042,0.693,0.06
			c0.224,0.03,0.446,0.034,0.662,0.084c0.216,0.059,0.428,0.118,0.637,0.175c0.427,0.086,0.788,0.3,1.15,0.46
			c0.705,0.364,1.276,0.825,1.707,1.302c0.404,0.493,0.719,0.97,0.845,1.414c0.198,0.422,0.201,0.79,0.232,1.034
			C42.289,109.571,42.303,109.701,42.303,109.701z M42.303,109.701c0,0-0.017-0.13-0.049-0.374
			c-0.035-0.243-0.045-0.609-0.249-1.026c-0.133-0.439-0.454-0.907-0.862-1.387c-0.435-0.462-1.003-0.918-1.716-1.238
			c-0.363-0.141-0.725-0.335-1.141-0.399c-0.202-0.047-0.408-0.094-0.617-0.143c-0.211-0.039-0.438-0.034-0.662-0.054
			c-0.22-0.008-0.465-0.041-0.672-0.029c-0.226,0.023-0.455,0.046-0.686,0.07c-0.468,0.01-0.913,0.199-1.378,0.307
			c-0.229,0.068-0.439,0.194-0.662,0.288c-0.221,0.1-0.446,0.195-0.637,0.35l-0.607,0.414l-0.524,0.521
			c-0.654,0.754-1.061,1.633-1.092,2.672c0.014,0.991,0.43,1.938,1.079,2.678c0.636,0.769,1.55,1.221,2.421,1.585
			c0.462,0.108,0.89,0.299,1.375,0.313c0.235,0.025,0.468,0.05,0.698,0.074c0.208,0.011,0.446-0.019,0.663-0.026
			c0.221-0.018,0.443-0.012,0.655-0.05c0.211-0.047,0.418-0.094,0.623-0.14c0.419-0.063,0.781-0.255,1.145-0.395
			c0.715-0.316,1.284-0.771,1.722-1.23c0.41-0.478,0.734-0.945,0.868-1.383c0.206-0.415,0.218-0.783,0.254-1.025
			C42.286,109.831,42.303,109.701,42.303,109.701z"/>
	</g>
	<path fill="#FFFFFF" d="M33.988,108.588c0,0-0.645-0.091-1.085,0.418l-0.007,2.812c0,0,0.089,0.394,0.134,0l0.004-1.576
		c0,0,0.223,0.484,0.213,0.618c0,0-0.002,0.69-0.029,0.725c0,0-0.099,0.224-0.064,0.34c0,0,0.071,0.143,0.08,0.251
		c0,0,0.053,0.421,0.044,0.466c-0.009,0.045,0.071,0.242,0.044,0.376s-0.054,0.206-0.054,0.206s0.349,0.162,0.43,0.001
		c0,0-0.241-0.233-0.222-0.959l0.063-0.009c0,0,0.073-0.403,0.118-0.465c0,0,0.357,0.538,0.384,0.601
		c0.027,0.063,0.303,0.547,0.303,0.547l0,0.17l-0.045,0.054l0,0.134l0.081,0l0,0.045l0.389,0.001l0-0.101l-0.014-0.163l-0.06-0.014
		l-0.003-0.113c0,0-0.296-0.696-0.445-0.845c0,0,0.005-0.408,0.185-0.446l0.507,0.005l0-0.05c0,0-1.434-0.54-1.067-0.997
		c0,0,0.624-0.831,0.926-0.529c0,0,0.448,0.257,0.658,0.212c0,0,1.199,0.01,0.557,0.664c0,0-0.376,0.142-0.43,0.078
		c0,0-0.12,0.375-0.193,0.402c-0.073,0.027,0.641,0.047,0.631,0.02c-0.009-0.027,0.513-0.2,0.714,0.057l0.292,0.248l-0.003,1.419
		l-0.069,0.009l0,0.151l0.359,0.001c0,0,0.021-0.117,0-0.137c-0.02-0.021-0.054-0.055-0.054-0.055l0.002-0.687
		c0,0,0.169-0.291,0.178-0.459c0,0,0.268,0.337,0.308,0.547c0,0,0.217,0.71,0.194,0.765l0.4-0.013l-0.027-0.064
		c0,0-0.38-0.701-0.389-0.801l-0.017-0.446l-0.05-0.114l0.005-0.05c0,0,0.177-0.004,0.164-0.009
		c-0.014-0.005,0.387-0.24,0.578-0.144c0.191,0.096,0.304,0.296,0.304,0.296l0,0.209l0,0.103c0,0,0.702,0.775,0.879,0.717
		c0,0,0.414,0.12,0.418-0.239c0,0-0.23-0.85-0.179-1.05c-0.043-0.014-0.078-0.129-0.078-0.129l0-0.136l-0.071-0.029l0.015-0.272
		c0,0-0.078-0.208-0.243,0.021l-0.129-0.007c0,0-0.934-1.197-0.97-1.318c0,0-0.334-0.981-0.635-0.817c0,0,0.577,0.996-0.19,1.623
		c0,0-0.193,0.143-0.579-0.08c0,0-1.364-0.747-1.421-1.076l-0.005-0.815c0,0-0.554,0.017-0.572-0.001s0,0.172,0,0.172
		s-0.38,0.357-0.409,0.421c0,0,0.149,0.53-1.031,0.577l-0.035-0.208l-0.45-0.409L33.988,108.588z"/>
	<g>
		<text transform="matrix(1 0.0024 -0.0024 1 31.2134 108.1939)"><tspan x="0" y="0" fill="#231F20" stroke="#ED1C24" stroke-width="0.75" stroke-miterlimit="10" font-family="'Georgia-Bold'" font-size="2.0461">  </tspan><tspan x="1.039" y="0" fill="#231F20" font-family="'Georgia-Bold'" font-size="2.0461">   </tspan><tspan x="2.598" y="0" fill="#FFFFFF" font-family="'Georgia-Bold'" font-size="2.0461">MOO</tspan></text>
	</g>
	
		<text transform="matrix(1.1553 0.0028 -0.0024 1 33.0586 106.6861)" fill="#FFFFFF" font-family="'Georgia-Bold'" font-size="1.0284">THE</text>
	
		<text transform="matrix(1.1553 0.0028 -0.0024 1 38.6405 108.9365)" fill="#FFFFFF" font-family="'Georgia-Bold'" font-size="0.8913">INC.</text>
</g>
</svg>
