<?xml version="1.0" encoding="utf-8"?>
<!-- Generator: Adobe Illustrator 17.0.2, SVG Export Plug-In . SVG Version: 6.00 Build 0)  -->
<!DOCTYPE svg PUBLIC "-//W3C//DTD SVG 1.1//EN" "http://www.w3.org/Graphics/SVG/1.1/DTD/svg11.dtd">
<svg version="1.1" id="Layer_1" xmlns="http://www.w3.org/2000/svg" xmlns:xlink="http://www.w3.org/1999/xlink" x="0px" y="0px"
	 width="77.988px" height="153.999px" viewBox="31.474 57.041 77.988 153.999"
	 enable-background="new 31.474 57.041 77.988 153.999" xml:space="preserve">
<g>
	
		<image overflow="visible" width="750" height="1481" xlink:href="../../../Artwork/Assignment 2/Design/Links/carton.jpg"  transform="matrix(0.104 0 0 0.104 31.4739 57.0407)">
	</image>
	<rect x="41.588" y="75.373" fill="#FFFFFF" stroke="#231F20" stroke-width="0.25" width="59.201" height="127.426"/>
	<g>
		<rect x="41.763" y="75.453" fill="#98C21F" width="32.57" height="127.835"/>
		<text transform="matrix(0 1.0032 -1 0 63.2625 98.803)" fill="#FFFFFF" font-family="'Georgia-Bold'" font-size="15.6817"> </text>
	</g>
	<rect x="77.036" y="98.244" fill="none" width="22.679" height="31.361"/>
	<text transform="matrix(1 0 0 1 77.7361 100.2917)" opacity="0.4"><tspan x="0" y="0" fill="#4E4E56" font-family="'Georgia'" font-size="2.7087">“We bring to your </tspan><tspan x="-0.155" y="3.25" fill="#4E4E56" font-family="'Georgia'" font-size="2.7087">home the BEST of </tspan><tspan x="5.254" y="6.5" fill="#4E4E56" font-family="'Georgia'" font-size="2.7087">the Best”</tspan></text>
	<text transform="matrix(0 1.0032 -1 0 44.8748 75.3347)" fill="#FFFFFF" font-family="'Georgia-Bold'" font-size="42.7682">MILK</text>
	<rect x="77.036" y="199.915" fill="#98C21F" width="23.753" height="1.273"/>
	<text transform="matrix(1.0032 0 0 1 84.4764 198.3342)" font-family="'Georgia'" font-size="4.2768">Organic</text>
</g>
<g>
	<ellipse transform="matrix(1 0.0024 -0.0024 1 0.2028 -0.2143)" fill="#98C21F" cx="89.792" cy="84.754" rx="9.153" ry="7.225"/>
	<g>
		<path fill="#FFFFFF" d="M98.619,84.803c0,0-0.011,0.188-0.032,0.541c-0.027,0.352-0.123,0.866-0.34,1.491
			c-0.246,0.613-0.635,1.328-1.254,2.015c-0.614,0.688-1.451,1.335-2.465,1.85c-1.015,0.513-2.216,0.878-3.521,1.008
			c-1.309,0.119-2.7,0.005-4.086-0.414c-1.366-0.429-2.729-1.169-3.759-2.31c-1.058-1.105-1.725-2.64-1.743-4.222
			c0.021-1.569,0.702-3.122,1.763-4.214c1.035-1.136,2.401-1.871,3.77-2.293c2.769-0.836,5.589-0.418,7.605,0.63
			c1.012,0.521,1.845,1.171,2.456,1.862c0.615,0.69,1.002,1.407,1.244,2.021c0.214,0.626,0.307,1.14,0.333,1.492
			C98.608,84.615,98.619,84.803,98.619,84.803z M98.619,84.803c0,0-0.012-0.188-0.036-0.541c-0.03-0.351-0.129-0.863-0.35-1.484
			c-0.249-0.609-0.642-1.317-1.261-1.994c-0.615-0.676-1.445-1.323-2.465-1.799c-1.013-0.481-2.211-0.808-3.481-0.901
			c-1.288-0.084-2.647,0.066-3.967,0.504c-1.305,0.453-2.584,1.19-3.549,2.262c-0.99,1.055-1.58,2.456-1.593,3.913
			c0.002,1.444,0.59,2.868,1.573,3.921c0.959,1.076,2.235,1.821,3.538,2.279c1.309,0.444,2.687,0.601,3.961,0.523
			c1.28-0.088,2.473-0.409,3.49-0.885c1.022-0.471,1.855-1.115,2.473-1.787c0.622-0.674,1.019-1.38,1.271-1.988
			c0.223-0.62,0.325-1.131,0.357-1.482C98.605,84.991,98.619,84.803,98.619,84.803z"/>
	</g>
	<path fill="#FFFFFF" d="M86.677,83.205c0,0-0.926-0.131-1.558,0.601l-0.01,4.039c0,0,0.127,0.566,0.193,0l0.005-2.264
		c0,0,0.32,0.695,0.307,0.888c0,0-0.002,0.99-0.041,1.042c0,0-0.142,0.321-0.091,0.489c0,0,0.102,0.206,0.115,0.36
		c0,0,0.076,0.605,0.063,0.669s0.102,0.348,0.063,0.54c-0.039,0.193-0.078,0.296-0.078,0.296s0.501,0.233,0.617,0.001
		c0,0-0.346-0.335-0.318-1.377l0.09-0.013c0,0,0.104-0.579,0.169-0.668c0,0,0.513,0.773,0.551,0.863
		c0.038,0.09,0.435,0.786,0.435,0.786l-0.001,0.244l-0.064,0.077l0,0.193l0.116,0l0,0.064l0.559,0.001l0-0.145l-0.02-0.234
		l-0.087-0.021l-0.005-0.163c0,0-0.425-0.999-0.639-1.214c0,0,0.006-0.586,0.266-0.641l0.728,0.007l0-0.071
		c0,0-2.059-0.775-1.532-1.431c0,0,0.897-1.194,1.329-0.759c0,0,0.643,0.37,0.946,0.305c0,0,1.722,0.015,0.799,0.954
		c0,0-0.539,0.204-0.618,0.112c0,0-0.172,0.538-0.277,0.578c-0.105,0.039,0.92,0.068,0.907,0.028
		c-0.013-0.039,0.737-0.287,1.025,0.081l0.42,0.356l-0.005,2.038l-0.099,0.013l-0.001,0.217l0.516,0.001c0,0,0.03-0.168,0-0.197
		c-0.029-0.029-0.078-0.079-0.078-0.079l0.002-0.986c0,0,0.243-0.417,0.256-0.659c0,0,0.384,0.484,0.442,0.785
		c0,0,0.311,1.02,0.278,1.098l0.575-0.018l-0.039-0.092c0,0-0.546-1.007-0.559-1.151l-0.025-0.64l-0.071-0.163l0.007-0.072
		c0,0,0.255-0.006,0.235-0.012c-0.02-0.007,0.556-0.345,0.83-0.207c0.274,0.138,0.437,0.426,0.437,0.426l-0.001,0.3l0,0.148
		c0,0,1.008,1.113,1.262,1.03c0,0,0.594,0.172,0.6-0.344c0,0-0.33-1.221-0.258-1.508c-0.062-0.021-0.113-0.185-0.113-0.185l0-0.195
		l-0.103-0.041l0.021-0.39c0,0-0.112-0.298-0.349,0.03l-0.185-0.011c0,0-1.342-1.719-1.393-1.893c0,0-0.479-1.408-0.911-1.173
		c0,0,0.829,1.43-0.273,2.331c0,0-0.278,0.205-0.832-0.115c0,0-1.959-1.073-2.04-1.546l-0.007-1.171c0,0-0.796,0.024-0.822-0.002
		s-0.001,0.247-0.001,0.247s-0.546,0.512-0.587,0.605c0,0,0.214,0.761-1.481,0.829l-0.051-0.298l-0.646-0.587L86.677,83.205z"/>
	<g>
		<text transform="matrix(1 0.0024 -0.0024 1 82.7216 82.659)"><tspan x="0" y="0" fill="#231F20" stroke="#ED1C24" stroke-width="0.75" stroke-miterlimit="10" font-family="'Georgia-Bold'" font-size="2.9384">  </tspan><tspan x="1.492" y="0" fill="#231F20" font-family="'Georgia-Bold'" font-size="2.9384">   </tspan><tspan x="3.73" y="0" fill="#FFFFFF" font-family="'Georgia-Bold'" font-size="2.9384">MOO</tspan></text>
	</g>
	
		<text transform="matrix(1.1553 0.0028 -0.0024 1 85.3713 80.4932)" fill="#FFFFFF" font-family="'Georgia-Bold'" font-size="1.4769">THE</text>
	
		<text transform="matrix(1.1553 0.0028 -0.0024 1 93.388 83.7255)" fill="#FFFFFF" font-family="'Georgia-Bold'" font-size="1.2801">INC.</text>
</g>
</svg>
