<?xml version="1.0" encoding="utf-8"?>
<!-- Generator: Adobe Illustrator 17.0.2, SVG Export Plug-In . SVG Version: 6.00 Build 0)  -->
<!DOCTYPE svg PUBLIC "-//W3C//DTD SVG 1.1//EN" "http://www.w3.org/Graphics/SVG/1.1/DTD/svg11.dtd">
<svg version="1.1" id="Layer_1" xmlns="http://www.w3.org/2000/svg" xmlns:xlink="http://www.w3.org/1999/xlink" x="0px" y="0px"
	 width="215.98px" height="173.437px" viewBox="0 0 215.98 173.437" enable-background="new 0 0 215.98 173.437"
	 xml:space="preserve">
<g>
	
		<ellipse fill="#FFFFFF" stroke="#231F20" stroke-width="0.5" stroke-miterlimit="10" cx="184.849" cy="140.299" rx="6.15" ry="5.219"/>
	
		<ellipse fill="#FFFFFF" stroke="#231F20" stroke-width="0.5" stroke-miterlimit="10" cx="193.436" cy="132.659" rx="6.15" ry="5.219"/>
	
		<ellipse fill="#FFFFFF" stroke="#231F20" stroke-width="0.5" stroke-miterlimit="10" cx="199.586" cy="123.844" rx="6.15" ry="5.219"/>
	
		<ellipse fill="#FFFFFF" stroke="#231F20" stroke-width="0.5" stroke-miterlimit="10" cx="204.951" cy="115.016" rx="6.15" ry="5.219"/>
	
		<ellipse fill="#FFFFFF" stroke="#231F20" stroke-width="0.5" stroke-miterlimit="10" cx="208.492" cy="104.775" rx="6.15" ry="5.219"/>
	
		<ellipse fill="#FFFFFF" stroke="#231F20" stroke-width="0.5" stroke-miterlimit="10" cx="209.58" cy="94.337" rx="6.15" ry="5.219"/>
	
		<ellipse fill="#FFFFFF" stroke="#231F20" stroke-width="0.5" stroke-miterlimit="10" cx="209.58" cy="83.899" rx="6.15" ry="5.219"/>
	
		<ellipse fill="#FFFFFF" stroke="#231F20" stroke-width="0.5" stroke-miterlimit="10" cx="208.492" cy="73.461" rx="6.15" ry="5.219"/>
	
		<ellipse transform="matrix(1 -0.0094 0.0094 1 -0.5854 1.9437)" fill="#FFFFFF" stroke="#231F20" stroke-width="0.5" stroke-miterlimit="10" cx="205.736" cy="63.023" rx="6.15" ry="5.219"/>
	
		<ellipse transform="matrix(1 -0.0094 0.0094 1 -0.5009 1.8853)" fill="#FFFFFF" stroke="#231F20" stroke-width="0.5" stroke-miterlimit="10" cx="199.586" cy="54.037" rx="6.15" ry="5.219"/>
	
		<ellipse transform="matrix(1 -0.0094 0.0094 1 -0.4157 1.8211)" fill="#FFFFFF" stroke="#231F20" stroke-width="0.5" stroke-miterlimit="10" cx="192.83" cy="44.979" rx="6.15" ry="5.219"/>
	
		<ellipse transform="matrix(0.9953 -0.0964 0.0964 0.9953 -2.6263 18.1031)" fill="#FFFFFF" stroke="#231F20" stroke-width="0.5" stroke-miterlimit="10" cx="185.954" cy="36.219" rx="6.15" ry="5.219"/>
	
		<ellipse fill="#FFFFFF" stroke="#231F20" stroke-width="0.5" stroke-miterlimit="10" cx="13.937" cy="120.235" rx="6.15" ry="5.219"/>
	
		<ellipse fill="#FFFFFF" stroke="#231F20" stroke-width="0.5" stroke-miterlimit="10" cx="10.332" cy="110.77" rx="6.15" ry="5.219"/>
	
		<ellipse fill="#FFFFFF" stroke="#231F20" stroke-width="0.5" stroke-miterlimit="10" cx="7.787" cy="100.332" rx="6.15" ry="5.219"/>
	<ellipse fill="#FFFFFF" stroke="#231F20" stroke-width="0.5" stroke-miterlimit="10" cx="6.4" cy="90.294" rx="6.15" ry="5.219"/>
	<ellipse fill="#FFFFFF" stroke="#231F20" stroke-width="0.5" stroke-miterlimit="10" cx="6.4" cy="79.965" rx="6.15" ry="5.219"/>
	
		<ellipse fill="#FFFFFF" stroke="#231F20" stroke-width="0.5" stroke-miterlimit="10" cx="7.787" cy="69.695" rx="6.15" ry="5.219"/>
	
		<ellipse fill="#FFFFFF" stroke="#231F20" stroke-width="0.5" stroke-miterlimit="10" cx="10.332" cy="59.257" rx="6.15" ry="5.219"/>
	
		<ellipse fill="#FFFFFF" stroke="#231F20" stroke-width="0.5" stroke-miterlimit="10" cx="16.27" cy="50.198" rx="6.15" ry="5.219"/>
	
		<ellipse fill="#FFFFFF" stroke="#231F20" stroke-width="0.5" stroke-miterlimit="10" cx="23.687" cy="41.448" rx="6.15" ry="5.219"/>
	
		<ellipse fill="#FFFFFF" stroke="#231F20" stroke-width="0.5" stroke-miterlimit="10" cx="31.195" cy="33.001" rx="6.15" ry="5.219"/>
	
		<ellipse fill="#FFFFFF" stroke="#231F20" stroke-width="0.5" stroke-miterlimit="10" cx="40.551" cy="25.653" rx="6.15" ry="5.219"/>
	
		<ellipse fill="#FFFFFF" stroke="#231F20" stroke-width="0.5" stroke-miterlimit="10" cx="50.835" cy="19.516" rx="6.15" ry="5.219"/>
	
		<ellipse fill="#FFFFFF" stroke="#231F20" stroke-width="0.5" stroke-miterlimit="10" cx="62.11" cy="15.215" rx="6.15" ry="5.219"/>
	
		<ellipse fill="#FFFFFF" stroke="#231F20" stroke-width="0.5" stroke-miterlimit="10" cx="73.626" cy="10.688" rx="6.15" ry="5.219"/>
	
		<ellipse fill="#FFFFFF" stroke="#231F20" stroke-width="0.5" stroke-miterlimit="10" cx="85.926" cy="8.604" rx="6.15" ry="5.219"/>
	
		<ellipse fill="#FFFFFF" stroke="#231F20" stroke-width="0.5" stroke-miterlimit="10" cx="98.226" cy="6.918" rx="6.15" ry="5.219"/>
	
		<ellipse fill="#FFFFFF" stroke="#231F20" stroke-width="0.5" stroke-miterlimit="10" cx="110.526" cy="5.469" rx="6.15" ry="5.219"/>
	
		<ellipse fill="#FFFFFF" stroke="#231F20" stroke-width="0.5" stroke-miterlimit="10" cx="122.826" cy="6.395" rx="6.15" ry="5.219"/>
	
		<ellipse fill="#FFFFFF" stroke="#231F20" stroke-width="0.5" stroke-miterlimit="10" cx="135.126" cy="8.604" rx="6.15" ry="5.219"/>
	
		<ellipse fill="#FFFFFF" stroke="#231F20" stroke-width="0.5" stroke-miterlimit="10" cx="146.618" cy="12.137" rx="6.15" ry="5.219"/>
	
		<ellipse fill="#FFFFFF" stroke="#231F20" stroke-width="0.5" stroke-miterlimit="10" cx="157.981" cy="17.356" rx="6.15" ry="5.219"/>
	
		<ellipse fill="#FFFFFF" stroke="#231F20" stroke-width="0.5" stroke-miterlimit="10" cx="168.801" cy="21.94" rx="6.15" ry="5.219"/>
	
		<ellipse fill="#FFFFFF" stroke="#231F20" stroke-width="0.5" stroke-miterlimit="10" cx="178.542" cy="27.794" rx="6.15" ry="5.219"/>
	
		<ellipse fill="#FFFFFF" stroke="#231F20" stroke-width="0.5" stroke-miterlimit="10" cx="20.087" cy="129.063" rx="6.15" ry="5.219"/>
	
		<ellipse fill="#FFFFFF" stroke="#231F20" stroke-width="0.5" stroke-miterlimit="10" cx="176.466" cy="147.635" rx="6.15" ry="5.219"/>
	
		<ellipse fill="#FFFFFF" stroke="#231F20" stroke-width="0.5" stroke-miterlimit="10" cx="37.346" cy="144.652" rx="6.15" ry="5.219"/>
	
		<ellipse fill="#FFFFFF" stroke="#231F20" stroke-width="0.5" stroke-miterlimit="10" cx="47.198" cy="152.014" rx="6.15" ry="5.219"/>
	
		<ellipse fill="#FFFFFF" stroke="#231F20" stroke-width="0.5" stroke-miterlimit="10" cx="28.57" cy="137.467" rx="6.15" ry="5.219"/>
	
		<ellipse fill="#FFFFFF" stroke="#231F20" stroke-width="0.5" stroke-miterlimit="10" cx="58.043" cy="157.233" rx="6.15" ry="5.219"/>
	
		<ellipse fill="#FFFFFF" stroke="#231F20" stroke-width="0.5" stroke-miterlimit="10" cx="70.343" cy="162.749" rx="6.15" ry="5.219"/>
	
		<ellipse fill="#FFFFFF" stroke="#231F20" stroke-width="0.5" stroke-miterlimit="10" cx="120.359" cy="167.968" rx="6.15" ry="5.219"/>
	
		<ellipse fill="#FFFFFF" stroke="#231F20" stroke-width="0.5" stroke-miterlimit="10" cx="132.659" cy="166.67" rx="6.15" ry="5.219"/>
	
		<ellipse fill="#FFFFFF" stroke="#231F20" stroke-width="0.5" stroke-miterlimit="10" cx="144.959" cy="162.44" rx="6.15" ry="5.219"/>
	
		<ellipse fill="#FFFFFF" stroke="#231F20" stroke-width="0.5" stroke-miterlimit="10" cx="157.259" cy="158.904" rx="6.15" ry="5.219"/>
	
		<ellipse fill="#FFFFFF" stroke="#231F20" stroke-width="0.5" stroke-miterlimit="10" cx="167.207" cy="153.685" rx="6.15" ry="5.219"/>
	
		<ellipse fill="#FFFFFF" stroke="#231F20" stroke-width="0.5" stroke-miterlimit="10" cx="82.643" cy="165.761" rx="6.15" ry="5.219"/>
	
		<ellipse fill="#FFFFFF" stroke="#231F20" stroke-width="0.5" stroke-miterlimit="10" cx="94.943" cy="166.355" rx="6.15" ry="5.219"/>
	
		<ellipse fill="#FFFFFF" stroke="#231F20" stroke-width="0.5" stroke-miterlimit="10" cx="107.541" cy="167.659" rx="6.15" ry="5.219"/>
	<g>
		<ellipse fill="#231F20" cx="107.541" cy="88.286" rx="100.951" ry="79.682"/>
		<g>
			<path fill="#FFFFFF" d="M203.48,88.596c0,0-0.015,0.521-0.043,1.528c-0.027,1.007-0.039,2.502-0.256,4.446
				c-0.356,3.878-1.265,9.589-3.807,16.438c-1.329,3.395-3.038,7.066-5.294,10.843c-2.242,3.784-5.089,7.624-8.481,11.408
				c-6.786,7.559-15.972,14.768-27.215,20.298c-11.232,5.52-24.475,9.363-38.783,10.615c-7.163,0.598-14.547,0.557-22.058-0.213
				c-3.754-0.357-7.518-0.988-11.296-1.726c-3.757-0.833-7.545-1.732-11.266-2.977c-7.481-2.355-14.795-5.68-21.723-9.838
				c-3.456-2.097-6.779-4.455-9.988-6.992c-3.175-2.582-6.186-5.395-9.009-8.414c-5.572-6.092-10.346-13.087-13.582-20.839
				c-3.329-7.708-5.019-16.141-5.094-24.577c0.084-8.412,1.769-16.882,5.099-24.575c3.235-7.752,8.01-14.746,13.581-20.838
				c2.823-3.018,5.834-5.832,9.009-8.413c3.208-2.537,6.531-4.895,9.987-6.992c6.928-4.158,14.242-7.483,21.722-9.838
				c3.721-1.245,7.509-2.143,11.266-2.977c3.777-0.739,7.541-1.369,11.295-1.727c7.511-0.77,14.89-0.812,22.057-0.214
				c14.307,1.252,27.551,5.095,38.782,10.614c11.242,5.531,20.429,12.739,27.215,20.298c3.392,3.784,6.239,7.623,8.481,11.407
				c2.257,3.776,3.965,7.448,5.295,10.843c2.542,6.848,3.451,12.561,3.807,16.437c0.217,1.942,0.229,3.439,0.256,4.447
				C203.465,88.075,203.48,88.596,203.48,88.596z M203.38,88.595c0,0-0.016-0.519-0.048-1.525c-0.03-1.006-0.047-2.501-0.27-4.438
				c-0.368-3.868-1.295-9.564-3.852-16.385c-1.337-3.381-3.053-7.036-5.315-10.793c-2.248-3.765-5.098-7.583-8.491-11.342
				c-6.789-7.51-15.967-14.662-27.185-20.134c-11.208-5.461-24.41-9.243-38.658-10.442c-7.119-0.571-14.494-0.505-21.952,0.286
				c-3.734,0.368-7.475,1.008-11.229,1.755c-3.732,0.842-7.496,1.747-11.189,2.997c-7.426,2.365-14.678,5.692-21.538,9.841
				c-3.422,2.092-6.709,4.442-9.88,6.966c-3.137,2.569-6.11,5.366-8.894,8.362c-5.493,6.048-10.186,12.975-13.351,20.631
				c-3.261,7.614-4.885,15.917-4.944,24.222c0.059,8.302,1.683,16.61,4.944,24.222c3.165,7.656,7.857,14.583,13.351,20.631
				c2.784,2.996,5.757,5.793,8.894,8.362c3.172,2.525,6.458,4.874,9.88,6.966c6.86,4.149,14.112,7.476,21.538,9.841
				c3.693,1.25,7.457,2.155,11.189,2.997c3.753,0.747,7.495,1.387,11.229,1.755c7.458,0.791,14.832,0.858,21.952,0.286
				c14.247-1.198,27.45-4.981,38.658-10.442c11.218-5.472,20.396-12.624,27.185-20.134c3.393-3.759,6.244-7.577,8.491-11.342
				c2.262-3.757,3.978-7.412,5.315-10.793c2.558-6.82,3.485-12.518,3.852-16.384c0.223-1.936,0.24-3.432,0.27-4.439
				C203.363,89.114,203.38,88.595,203.38,88.595z"/>
		</g>
		<path fill="#FFFFFF" d="M71.682,71.285c0,0-10.214-1.419-17.164,6.667v44.542c0,0,1.419,6.242,2.128,0V97.528
			c0,0,3.546,7.66,3.405,9.788c0,0,0,10.923-0.426,11.49c0,0-1.56,3.546-0.993,5.39c0,0,1.135,2.27,1.277,3.972
			c0,0,0.851,6.667,0.709,7.376c-0.142,0.709,1.135,3.83,0.709,5.958c-0.426,2.128-0.851,3.263-0.851,3.263s5.532,2.553,6.809,0
			c0,0-3.83-3.688-3.546-15.178l0.993-0.142c0,0,1.135-6.383,1.844-7.376c0,0,5.674,8.511,6.1,9.504
			c0.426,0.993,4.823,8.653,4.823,8.653v2.695l-0.709,0.851v2.128h1.277v0.709h6.168v-1.603l-0.225-2.584l-0.955-0.225l-0.056-1.798
			c0,0-4.719-11.01-7.078-13.369c0,0,0.056-6.46,2.921-7.078l8.033,0.056v-0.786c0,0-22.734-8.497-16.935-15.745
			c0,0,9.858-13.192,14.641-8.408c0,0,7.103,4.059,10.437,3.334c0,0,18.99,0.117,8.843,10.496c0,0-5.944,2.261-6.813,1.246
			c0,0-1.885,5.944-3.044,6.378c-1.16,0.435,10.147,0.725,10.003,0.29s8.118-3.189,11.307,0.87l4.639,3.914v22.476l-1.091,0.144
			v2.392h5.691c0,0,0.324-1.852,0-2.176s-0.865-0.865-0.865-0.865v-10.878c0,0,2.666-4.611,2.81-7.276c0,0,4.25,5.331,4.899,8.645
			c0,0,3.458,11.239,3.098,12.103l6.34-0.216l-0.432-1.009c0,0-6.052-11.094-6.196-12.679l-0.288-7.06l-0.792-1.801l0.072-0.792
			c0,0,2.81-0.072,2.594-0.144c-0.216-0.072,6.124-3.818,9.149-2.305s4.827,4.683,4.827,4.683v3.314v1.636
			c0,0,11.149,12.245,13.945,11.329c0,0,6.557,1.88,6.605-3.809c0,0-3.674-13.455-2.881-16.628c-0.68-0.227-1.246-2.039-1.246-2.039
			v-2.153l-1.133-0.453l0.227-4.305c0,0-1.246-3.286-3.852,0.34l-2.039-0.113c0,0-14.841-18.92-15.408-20.846
			c0,0-5.325-15.521-10.083-12.915c0,0,9.177,15.748-2.946,25.718c0,0-3.059,2.266-9.177-1.246c0,0-21.639-11.783-22.545-16.994
			L99.12,72.758c0,0-8.78,0.283-9.063,0s0,2.719,0,2.719s-6.005,5.665-6.458,6.684c0,0,2.379,8.384-16.314,9.177l-0.566-3.286
			l-7.137-6.458L71.682,71.285z"/>
		<text transform="matrix(1 0 0 1 76.4931 65.845)" fill="#FFFFFF" font-family="'Georgia-Bold'" font-size="32.4082">MOO</text>
		<text transform="matrix(1.1553 0 0 1 51.8929 41.4472)" fill="#FFFFFF" font-family="'Georgia-Bold'" font-size="16.2889">THE</text>
		<text transform="matrix(1.1553 0 0 1 149.0508 77.5829)" fill="#FFFFFF" font-family="'Georgia-Bold'" font-size="14.1182">INC.</text>
	</g>
</g>
</svg>
