<?xml version="1.0" encoding="utf-8"?>
<!-- Generator: Adobe Illustrator 17.0.2, SVG Export Plug-In . SVG Version: 6.00 Build 0)  -->
<!DOCTYPE svg PUBLIC "-//W3C//DTD SVG 1.1//EN" "http://www.w3.org/Graphics/SVG/1.1/DTD/svg11.dtd">
<svg version="1.1" id="Layer_1" xmlns="http://www.w3.org/2000/svg" xmlns:xlink="http://www.w3.org/1999/xlink" x="0px" y="0px"
	 width="69.894px" height="135.338px" viewBox="39.966 68.975 69.894 135.338"
	 enable-background="new 39.966 68.975 69.894 135.338" xml:space="preserve">
<g>
	
		<image overflow="visible" width="750" height="1481" xlink:href="../../../Artwork/Assignment 2/Design/Links/carton.jpg"  transform="matrix(0.0914 0 0 0.0914 39.966 68.975)">
	</image>
	<rect x="48.854" y="85.336" fill="#FFFFFF" stroke="#231F20" stroke-width="0.25" width="52.027" height="111.984"/>
	<g>
		<rect x="48.854" y="85.336" fill="#D14F53" width="28.623" height="112.344"/>
		<text transform="matrix(0 1.0032 -1 0 54.4509 93.2362)" fill="#FFFFFF" font-family="'Georgia-Bold'" font-size="33.4512">MILK</text>
	</g>
	<rect x="87.669" y="192.166" fill="none" width="22.192" height="5.155"/>
	<text transform="matrix(1 0 0 1 87.6697 194.2626)" font-family="'Georgia-Bold'" font-size="2.7726">WHOLE</text>
	<rect x="77.097" y="194.743" fill="#D14F53" width="23.415" height="0.6"/>
	<rect x="80.007" y="105.185" fill="none" width="19.931" height="27.561"/>
	<text transform="matrix(1 0 0 1 80.6218 106.9852)" opacity="0.4"><tspan x="0" y="0" fill="#4E4E56" font-family="'Georgia'" font-size="2.3804">“We bring to your </tspan><tspan x="-0.137" y="2.856" fill="#4E4E56" font-family="'Georgia'" font-size="2.3804">home the BEST of </tspan><tspan x="4.617" y="5.713" fill="#4E4E56" font-family="'Georgia'" font-size="2.3804">the Best”</tspan></text>
</g>
<g>
	<ellipse transform="matrix(1 0.0024 -0.0024 1 0.2244 -0.2159)" fill="#D14F53" cx="90.459" cy="93.815" rx="9.153" ry="7.225"/>
	<g>
		<path fill="#FFFFFF" d="M99.285,93.864c0,0-0.011,0.188-0.032,0.541c-0.027,0.352-0.123,0.866-0.34,1.491
			c-0.246,0.613-0.635,1.328-1.254,2.015c-0.614,0.688-1.451,1.335-2.465,1.85c-1.015,0.513-2.216,0.878-3.521,1.008
			c-1.309,0.119-2.7,0.005-4.086-0.414c-1.366-0.429-2.729-1.169-3.759-2.31c-1.058-1.105-1.725-2.64-1.743-4.222
			c0.021-1.569,0.702-3.122,1.763-4.214c1.035-1.136,2.401-1.871,3.77-2.293c2.769-0.836,5.589-0.418,7.605,0.63
			c1.012,0.521,1.845,1.171,2.456,1.862c0.615,0.69,1.002,1.407,1.244,2.021c0.214,0.626,0.307,1.14,0.333,1.492
			C99.275,93.676,99.285,93.864,99.285,93.864z M99.285,93.864c0,0-0.012-0.188-0.036-0.541c-0.03-0.351-0.129-0.863-0.35-1.484
			c-0.249-0.609-0.642-1.317-1.261-1.994c-0.615-0.676-1.445-1.323-2.465-1.799c-1.013-0.481-2.211-0.808-3.481-0.901
			c-1.288-0.084-2.647,0.066-3.967,0.504c-1.305,0.453-2.584,1.19-3.549,2.262c-0.99,1.055-1.58,2.456-1.593,3.913
			c0.002,1.444,0.59,2.868,1.573,3.921c0.959,1.076,2.235,1.821,3.538,2.279c1.309,0.444,2.687,0.601,3.961,0.523
			c1.28-0.088,2.473-0.409,3.49-0.885c1.022-0.471,1.855-1.115,2.473-1.787c0.622-0.674,1.019-1.38,1.271-1.988
			c0.223-0.62,0.325-1.131,0.357-1.482C99.271,94.052,99.285,93.864,99.285,93.864z"/>
	</g>
	<path fill="#FFFFFF" d="M87.343,92.266c0,0-0.926-0.131-1.558,0.601l-0.01,4.039c0,0,0.127,0.566,0.193,0l0.005-2.264
		c0,0,0.32,0.695,0.307,0.888c0,0-0.002,0.99-0.041,1.042c0,0-0.142,0.321-0.091,0.489c0,0,0.102,0.206,0.115,0.36
		c0,0,0.076,0.605,0.063,0.669s0.102,0.348,0.063,0.54c-0.039,0.193-0.078,0.296-0.078,0.296s0.501,0.233,0.617,0.001
		c0,0-0.346-0.335-0.318-1.377l0.09-0.013c0,0,0.104-0.579,0.169-0.668c0,0,0.513,0.773,0.551,0.863s0.435,0.786,0.435,0.786
		l-0.001,0.244l-0.064,0.077l0,0.193l0.116,0l0,0.064l0.559,0.001l0-0.145l-0.02-0.234l-0.087-0.021l-0.005-0.163
		c0,0-0.425-0.999-0.639-1.214c0,0,0.006-0.586,0.266-0.641l0.728,0.007l0-0.071c0,0-2.059-0.775-1.532-1.431
		c0,0,0.897-1.194,1.329-0.759c0,0,0.643,0.37,0.946,0.305c0,0,1.722,0.015,0.799,0.954c0,0-0.539,0.204-0.618,0.112
		c0,0-0.172,0.538-0.277,0.578c-0.105,0.039,0.92,0.068,0.907,0.028c-0.013-0.039,0.737-0.287,1.025,0.081l0.42,0.356l-0.005,2.038
		l-0.099,0.013l-0.001,0.217l0.516,0.001c0,0,0.03-0.168,0-0.197c-0.029-0.029-0.078-0.079-0.078-0.079l0.002-0.986
		c0,0,0.243-0.417,0.256-0.659c0,0,0.384,0.484,0.442,0.785c0,0,0.311,1.02,0.278,1.098l0.575-0.018l-0.039-0.092
		c0,0-0.546-1.007-0.559-1.151l-0.025-0.64l-0.071-0.163l0.007-0.072c0,0,0.255-0.006,0.235-0.012
		c-0.02-0.007,0.556-0.345,0.83-0.207c0.274,0.138,0.437,0.426,0.437,0.426l-0.001,0.3l0,0.148c0,0,1.008,1.113,1.262,1.03
		c0,0,0.594,0.172,0.6-0.344c0,0-0.33-1.221-0.258-1.508c-0.062-0.021-0.113-0.185-0.113-0.185l0-0.195L95.8,96.344l0.021-0.39
		c0,0-0.112-0.298-0.349,0.03l-0.185-0.011c0,0-1.342-1.719-1.392-1.893c0,0-0.479-1.408-0.911-1.173c0,0,0.829,1.43-0.273,2.331
		c0,0-0.278,0.205-0.832-0.115c0,0-1.959-1.073-2.04-1.546l-0.007-1.171c0,0-0.796,0.024-0.822-0.002s-0.001,0.247-0.001,0.247
		s-0.546,0.512-0.587,0.605c0,0,0.214,0.761-1.481,0.829l-0.051-0.298l-0.646-0.587L87.343,92.266z"/>
	<g>
		<text transform="matrix(1 0.0024 -0.0024 1 83.3879 91.7198)"><tspan x="0" y="0" fill="#231F20" stroke="#ED1C24" stroke-width="0.75" stroke-miterlimit="10" font-family="'Georgia-Bold'" font-size="2.9384">  </tspan><tspan x="1.492" y="0" fill="#231F20" font-family="'Georgia-Bold'" font-size="2.9384">   </tspan><tspan x="3.73" y="0" fill="#FFFFFF" font-family="'Georgia-Bold'" font-size="2.9384">MOO</tspan></text>
	</g>
	
		<text transform="matrix(1.1553 0.0028 -0.0024 1 86.0375 89.5541)" fill="#FFFFFF" font-family="'Georgia-Bold'" font-size="1.4769">THE</text>
	
		<text transform="matrix(1.1553 0.0028 -0.0024 1 94.0542 92.7864)" fill="#FFFFFF" font-family="'Georgia-Bold'" font-size="1.2801">INC.</text>
</g>
</svg>
